<svg xmlns="http://www.w3.org/2000/svg" width="400" height="492.308" viewBox="0 0 0 0 400 492.308"><g fill-rule="evenodd"><path d="M185.067 185.067c-.147.146-.267 13.714-.267 30.151 0 24.788-.093 29.961-.547 30.338-.391.325-4.744.424-15.3.349L154.2 245.8l-.105-14.765c-.072-10.085-.246-14.935-.549-15.3-.707-.851-60.039-.786-60.747.067-.396.477-.427 6.779-.149 30.5L93 276.2l30.162.103c21.473.073 30.317.231 30.7.549.433.359.538 3.33.538 15.197V306.8h122v-14.751c0-11.827.106-14.839.535-15.195.365-.303 5.215-.477 15.3-.549L307 276.2l.102-45.7.101-45.7h-29.576l-.215 15.5c-.118 8.525-.35 22.25-.514 30.5l-.298 15h-30l-.298-15c-.164-8.25-.396-21.975-.514-30.5l-.215-15.5h-30.12c-16.566 0-30.24.12-30.386.267M123.784 339.3c-.105.275-.144 13.82-.087 30.1l.103 29.6h60.8l.103-29.775c.081-23.555-.003-29.841-.4-30.094-.903-.573-60.299-.407-60.519.169" fill="#fcccd4"/><path d="M123.2 61.551c0 24.517-.097 30.032-.535 30.395-.365.303-5.215.477-15.3.549L92.6 92.6l-.105 14.765c-.072 10.085-.246 14.935-.549 15.3-.356.429-3.327.535-14.946.535-11.618 0-14.59.106-14.946.535-.303.365-.477 5.163-.549 15.1L61.4 153.4l-14.9.105-14.9.105v61.19h15.157c13.453 0 15.185.071 15.4.633.134.348.243 7.188.243 15.2V245.2h14.367c7.902 0 14.652.109 15 .243.57.218.633-1.223.633-14.52 0-10.949.124-14.887.48-15.243.743-.743 60.048-.69 60.666.055.303.365.477 5.215.549 15.3l.105 14.765 14.847.105c12.109.085 14.93.005 15.297-.438.323-.389.48-9.019.553-30.505L185 185l30.183-.103c19.319-.065 30.325-.245 30.58-.5.544-.544 31.301-.541 31.637.003.158.255 5.603.4 15.019.4h14.772l.104-15.7.105-15.7 30.5-.102 30.5-.103v-29.491l-30.1-.352-30.1-.352-.105-14.76c-.096-13.473-.166-14.805-.8-15.287-.544-.413-3.748-.53-14.762-.54-7.737-.007-14.352-.122-14.7-.256-.561-.215-.633-1.91-.633-14.976 0-9.391-.145-14.823-.4-14.981-.255-.158-.4-5.737-.4-15.424V31.6H123.2v29.951" fill="#ecdc34"/><path d="M185.28 400.08c-.356.356-.48 4.279-.48 15.176 0 11.318-.115 14.771-.5 15.02-.275.178-14.09.414-30.7.524l-30.2.2v30h122.4l.102-30.434.103-30.435-22.268-.265c-32.274-.385-37.889-.354-38.457.214" fill="#ec341c"/><path d="M108.1 31.1l-15.3.11v14.733c0 13.765-.048 14.777-.731 15.395-.653.591-2.313.662-15.4.662H62v30.151c0 24.684-.097 30.232-.535 30.595-.365.303-5.215.477-15.3.549L31.4 123.4l-.294 21.6c-.161 11.88-.251 32.49-.2 45.8L31 215l14.765.105c10.003.071 14.936.247 15.295.545.419.348.552 3.548.635 15.295L61.8 245.8l15.4.097c10.127.063 15.195-.037 14.8-.294-.362-.236-6.354-.393-15.1-.397l-14.5-.006v-14.567c0-8.012-.109-14.852-.243-15.2-.215-.562-1.947-.633-15.4-.633H31.6v-61.19l14.9-.105 14.9-.105.105-14.565c.072-9.937.246-14.735.549-15.1.356-.429 3.328-.535 14.946-.535 11.619 0 14.59-.106 14.946-.535.303-.365.477-5.215.549-15.3L92.6 92.6l14.765-.105c10.085-.072 14.935-.246 15.3-.549.438-.363.535-5.878.535-30.395V31.6h153.2v15.176c0 9.687.145 15.266.4 15.424.255.158.4 5.59.4 14.981 0 13.066.072 14.761.633 14.976.348.134 6.963.249 14.7.256 11.014.01 14.218.127 14.762.54.634.482.704 1.814.8 15.287L308.2 123l30.1.352 30.1.352v29.491l-30.5.103-30.5.102-.105 15.771c-.057 8.675.033 15.635.2 15.468.168-.168.395-7.085.505-15.372l.2-15.067 29.962-.103c21.486-.073 30.116-.23 30.505-.553.443-.367.523-3.188.438-15.297L369 123.4l-15.2-.212c-8.36-.117-15.243-.252-15.295-.3-.052-.048-.142-6.793-.2-14.988L338.2 93l-14.785-.105c-9.529-.068-14.933-.252-15.2-.52-.264-.264-.488-5.817-.615-15.295l-.2-14.88-14.565-.105c-9.937-.072-14.735-.246-15.1-.549-.429-.356-.535-3.356-.535-15.115 0-10.877-.124-14.795-.48-15.151-.444-.444-114.809-.566-168.62-.18m137.771 153.162c-.149.149-.271.376-.271.505 0 .128 7.2.233 16 .233 10.489 0 15.954-.138 15.867-.4-.151-.454-31.149-.785-31.596-.338" fill="#aca424"/><path d="M91.6 15v15H60.8v30.8H30V122H0v94.4h30v30.8h30.8v30.4h30.8v184.8H122V492h125.2v-29.6H278v-63.6h-30.8v-59.6H278v-30.8h30.8v-30.8h30.8v-91.99l15.3-.105 15.3-.105.105-15.3.105-15.3H400V122h-29.59l-.105-15.3-.105-15.3-15.3-.105-15.3-.105V60.8h-30.8V30H278V0H91.6v15m184.967 15.643c.562.215.633 1.923.633 15.12 0 11.038.124 15.001.48 15.357.356.356 4.275.48 15.157.48 13.015 0 14.705.072 14.92.633.134.348.243 7.062.243 14.92 0 10.579.125 14.412.48 14.767.356.356 4.284.48 15.2.48h14.72v14.72c0 10.916.124 14.844.48 15.2.356.356 4.269.482 15.1.486 8.041.003 14.847.15 15.125.327.395.251.482 3.621.4 15.494L369.4 153.8l-30.162.103c-20.19.068-30.328.24-30.665.519-.401.333-.456 12.469-.275 60.103.124 32.827.1 60.359-.054 61.181l-.28 1.494H277.6v14.626c0 9.318-.15 14.907-.414 15.4-.54 1.008-122.298 1.244-123.132.239-.303-.365-.477-5.215-.549-15.3L153.4 277.4l-30.6-.2-30.6-.2-.2-15.2-.2-15.2-14.785-.105c-9.529-.068-14.933-.252-15.2-.52-.264-.264-.488-5.817-.615-15.295L61 215.8l-14.765-.105c-11.012-.078-14.917-.231-15.364-.6-.602-.497-.451-90.557.153-91.534.126-.204 6.621-.361 14.951-.361 11.847 0 14.814-.105 15.173-.538.318-.383.476-9.227.549-30.7L61.8 61.8l14.765-.105c10.003-.071 14.936-.247 15.295-.545.419-.348.552-3.548.635-15.295L92.6 31l15.6-.207c22.968-.305 167.628-.434 168.367-.15m-29.583 154.654c-.107.278-.147 7.076-.089 15.105L247 215h29.2v-30l-14.511-.105c-11.42-.083-14.552.003-14.705.402M214.83 338.619c.221.136.37 12.271.37 30.176 0 26.692.068 30.016.629 30.576.548.549 2.505.629 15.402.629h14.774l-.103 30.5-.102 30.5H123.4v-30l30.28-.2c20.588-.136 30.416-.336 30.705-.625.288-.288.391-5.112.32-15L184.6 400.6l-30.4-.2c-16.72-.11-30.625-.346-30.9-.524-.393-.254-.5-6.822-.5-30.62 0-23.687.109-30.412.5-30.826.512-.544 90.646-.358 91.53.189" fill="#040404"/><path d="M246.584 216.097c-.107.279-.147 7.076-.089 15.105l.105 14.598h30v-30l-14.911-.105c-11.74-.082-14.952.003-15.105.402" fill="#549cfc"/><path d="M199.76 30.7c55.633.074 76.507.224 76.9.55.338.28.54.296.54.042 0-.856-3.295-.889-77.533-.793l-76.267.099 76.36.102m-107.093.367c-.147.146-.267 6.874-.267 14.951 0 11.771-.106 14.772-.535 15.128-.365.303-5.215.477-15.3.549L61.8 61.8l-.103 30.162c-.079 23.31-.215 30.307-.6 30.8-.44.565-.417.575.203.089.656-.514.7-2.461.7-30.7V62h14.738c13.77 0 14.781-.048 15.4-.731.591-.653.662-2.312.662-15.396V31.21l15.3-.11 15.3-.11-15.233-.095c-8.379-.052-15.354.025-15.5.172m184.897 30.228c.48.635 1.805.704 15.181.8l14.655.105.2 14.88c.126 9.365.352 15.033.61 15.291.479.478 30.19.802 30.19.329 0-.165-6.624-.3-14.72-.3-10.916 0-14.844-.124-15.2-.48-.355-.355-.48-4.188-.48-14.767 0-7.858-.109-14.572-.243-14.92-.215-.561-1.905-.633-14.92-.633-11.176 0-14.811-.119-15.238-.5-.476-.425-.481-.396-.035.195M338.4 122.32c0 .264.045.52.1.568.055.048 6.94.183 15.3.3l15.2.212.105 14.753c.081 11.417-.009 14.891-.4 15.365-.417.505-.4.577.095.414.825-.273 1.122-30.281.305-30.799-.278-.177-7.084-.324-15.125-.327-10.831-.004-14.744-.13-15.1-.486-.373-.373-.48-.373-.48 0m-307.418 1.381c-.105.276-.145 7.251-.087 15.5l.106 14.999.199-15.5c.11-8.525.149-15.5.087-15.5-.061 0-.199.226-.305.501m-.486 60.75c-.079 24.856-.001 30.33.439 30.695.365.303 5.215.477 15.3.549L61 215.8l.207 14.8.208 14.8.092-14.651c.075-11.83-.01-14.737-.442-15.095-.365-.303-5.215-.477-15.3-.549L31 215l-.204-30.4-.204-30.4-.096 30.251m277.05-.851c-.074.11-.227 20.99-.34 46.4L307 276.2l-14.765.105c-10.085.072-14.935.246-15.3.549-.429.356-.535 3.368-.535 15.195V306.8h-122v-14.751c0-11.867-.105-14.838-.538-15.197-.383-.318-9.227-.476-30.7-.549L93 276.2l-.105-15.091-.105-15.091-15.575-.109c-8.567-.06-15.443.024-15.28.186.162.162 6.948.342 15.08.4l14.785.105.2 15.2.2 15.2 30.6.2 30.6.2.105 14.765c.072 10.085.246 14.935.549 15.3.834 1.005 122.592.769 123.132-.239.264-.493.414-6.082.414-15.4V277.2H307.907l.241-.9c.722-2.694.13-93.793-.602-92.7m-61.679 1.467c-.37.37-.282 29.752.092 30.706.208.532.394.626.596.3.407-.659 29.478-.68 30.137-.021.812.812.942-1.816.823-16.647-.099-12.415-.197-14.41-.715-14.51-.525-.101-.6 1.779-.6 14.995V215H247v-15.1c0-14.56-.1-15.867-1.133-14.833M123.3 338.43c-.96 1.018-.702 61.033.265 61.551 1.059.567 61.219.595 61.785.029.265-.265 5.645-.41 15.23-.41h14.82l-.107-30.287c-.06-16.659-.251-30.431-.425-30.605-.604-.604-91.002-.879-91.568-.278m61.003.701c.397.253.481 6.539.4 30.094L184.6 399h-60.8l-.103-29.6c-.057-16.28-.018-29.825.087-30.1.22-.576 59.616-.742 60.519-.169" fill="#848484"/></g></svg>