<?xml version="1.0" standalone="no"?>
<!DOCTYPE svg PUBLIC "-//W3C//DTD SVG 20010904//EN"
 "http://www.w3.org/TR/2001/REC-SVG-20010904/DTD/svg10.dtd">
<svg version="1.0" xmlns="http://www.w3.org/2000/svg"
 width="240.000000pt" height="240.000000pt" viewBox="0 0 240.000000 240.000000"
 preserveAspectRatio="xMidYMid meet">
<g transform="translate(0.000000,240.000000) scale(0.100000,-0.100000)"
fill="#000000" stroke="none">
<path d="M680 2325 l0 -75 -75 0 -75 0 0 -75 0 -75 -75 0 -75 0 0 -150 0 -150
-75 0 -75 0 0 -225 0 -225 75 0 75 0 0 -75 0 -75 75 0 75 0 0 -75 0 -75 75 0
75 0 0 -450 0 -450 75 0 75 0 0 -75 0 -75 300 0 300 0 0 75 0 75 75 0 75 0 0
150 0 150 -75 0 -75 0 0 150 0 150 75 0 75 0 0 75 0 75 75 0 75 0 0 75 0 75
75 0 75 0 0 225 0 225 75 0 75 0 0 75 0 75 75 0 75 0 0 75 0 75 -75 0 -75 0 0
75 0 75 -75 0 -75 0 0 75 0 75 -75 0 -75 0 0 75 0 75 -75 0 -75 0 0 75 0 75
-450 0 -450 0 0 -75z"/>
</g>
</svg>
